# xmcd
#
# Track frame offsets: 
#        150
#        17159
#        34856
#        48776
#        67031
#        81677
#        98769
#        124367
#        142914
#        166759
#
# Disc length: 2506 seconds
#
# Revision: 0
# Processed by: cddbd v1.5.2PL0 Copyright (c) Steve Scherf et al.
# Submitted via: ExactAudioCopy v1.3
#
DISCID=8409c80a
DTITLE=Big Town Players - Big Town
DYEAR=2018
DGENRE=Blues
TTITLE0=Big Town Players
TTITLE1=All About You
TTITLE2=Fool For The Blind
TTITLE3=I'm Alright
TTITLE4=Let Me Come Home
TTITLE5=My Kind Of Woman
TTITLE6=Won't Give In
TTITLE7=Sinners Delight
TTITLE8=Trouble Train
TTITLE9=Desperate Halo
EXTD=
EXTT0=
EXTT1=
EXTT2=
EXTT3=
EXTT4=
EXTT5=
EXTT6=
EXTT7=
EXTT8=
EXTT9=
PLAYORDER=
